<?xml version="1.0" standalone="no"?>
<!DOCTYPE svg PUBLIC "-//W3C//DTD SVG 20010904//EN"
 "http://www.w3.org/TR/2001/REC-SVG-20010904/DTD/svg10.dtd">
<svg version="1.0" xmlns="http://www.w3.org/2000/svg"
 width="642.000000pt" height="642.000000pt" viewBox="0 0 642.000000 642.000000"
 preserveAspectRatio="xMidYMid meet">
<metadata>
Created by potrace 1.14, written by Peter Selinger 2001-2017
</metadata>
<g transform="translate(0.000000,642.000000) scale(0.100000,-0.100000)"
fill="#000000" stroke="none">
<path d="M0 3210 l0 -3210 3210 0 3210 0 0 3210 0 3210 -3210 0 -3210 0 0
-3210z m3580 3104 c982 -109 1870 -679 2374 -1524 674 -1129 576 -2540 -246
-3527 -112 -135 -331 -351 -463 -456 -331 -265 -694 -459 -1085 -581 -560
-174 -1186 -189 -1765 -41 -811 206 -1525 735 -1950 1446 -229 384 -373 833
-416 1302 -16 178 -6 534 19 702 90 582 319 1095 689 1542 101 122 337 354
465 457 298 239 699 450 1063 561 427 129 865 169 1315 119z"/>
<path d="M2970 6203 c-934 -68 -1801 -575 -2324 -1358 -268 -402 -431 -850
-486 -1340 -15 -138 -12 -500 6 -655 63 -546 273 -1047 619 -1479 349 -436
774 -750 1295 -954 719 -282 1562 -275 2290 20 710 287 1283 816 1611 1486
147 301 234 605 276 967 19 166 13 515 -12 695 -64 462 -218 872 -470 1250
-124 186 -202 283 -365 449 -518 530 -1187 849 -1920 916 -105 9 -410 11 -520
3z m432 -75 c28 -8 35 -14 26 -21 -9 -6 -8 -7 5 -3 33 11 225 8 246 -3 11 -6
48 -14 83 -17 71 -7 311 -64 403 -96 158 -55 427 -174 498 -222 17 -11 43 -27
57 -34 14 -7 34 -18 45 -25 11 -7 38 -23 60 -36 22 -13 57 -40 78 -60 21 -20
40 -35 42 -33 3 1 4 -1 3 -5 -2 -5 -7 -7 -11 -5 -5 1 -6 -2 -2 -8 5 -8 11 -8
20 0 11 9 22 6 49 -15 20 -15 33 -31 30 -36 -3 -5 -10 -6 -16 -3 -7 5 -8 2 -3
-5 5 -9 10 -10 18 -2 6 6 14 11 19 11 12 0 179 -142 220 -188 21 -23 34 -43
29 -46 -10 -7 -33 18 -26 27 3 4 2 5 -2 2 -3 -3 -12 0 -20 6 -37 31 -4 -5 69
-76 46 -44 67 -63 48 -42 -19 21 -28 35 -20 32 8 -4 31 -26 50 -49 19 -22 27
-35 18 -27 -28 21 -21 -3 8 -30 14 -13 58 -63 97 -111 38 -48 74 -85 78 -83 3
3 13 -3 20 -13 13 -15 12 -16 -3 -3 -10 7 -18 9 -18 3 0 -15 23 -30 41 -27 9
2 16 -3 16 -11 0 -10 -4 -11 -14 -3 -24 20 -14 1 51 -98 241 -370 394 -788
452 -1238 23 -177 23 -535 0 -703 -71 -527 -264 -980 -594 -1397 -76 -96 -266
-289 -388 -394 -311 -270 -686 -477 -1076 -595 -1070 -324 -2223 -40 -3002
739 -372 372 -629 827 -754 1335 -41 166 -61 305 -72 512 -22 405 36 787 179
1174 22 59 37 112 35 118 -5 14 25 91 32 83 3 -3 -2 -19 -10 -36 -9 -16 -16
-34 -16 -38 1 -4 17 23 36 60 19 37 32 72 29 77 -4 6 -1 10 5 10 6 0 9 4 5 9
-7 13 26 82 36 75 5 -2 15 9 24 26 12 23 12 30 3 30 -7 1 1 12 17 26 17 13 22
22 13 18 -28 -10 -21 3 25 48 23 23 36 38 29 34 -18 -11 -15 18 6 45 10 13 22
32 25 42 4 10 11 15 17 12 6 -4 8 -11 5 -16 -14 -22 6 -6 25 20 14 21 17 32 9
37 -7 4 -9 3 -6 -3 4 -6 -3 -13 -14 -16 -21 -6 -21 -5 2 21 34 39 51 52 59 47
4 -3 14 3 21 13 12 15 12 16 -1 7 -9 -5 -7 -2 5 9 11 10 19 23 17 28 -1 5 2 7
7 3 12 -7 33 29 23 40 -4 3 -2 5 4 3 6 -1 63 53 126 122 63 69 131 138 151
153 21 16 34 33 31 39 -4 6 -3 8 3 5 6 -4 35 17 64 45 30 29 57 53 61 53 3 0
23 14 43 32 20 18 37 32 38 31 9 -2 80 48 88 63 5 11 14 17 18 14 5 -3 12 2
15 11 3 8 10 13 15 10 4 -3 17 4 27 15 10 12 32 28 49 37 29 16 35 18 53 21 5
0 19 11 32 24 14 12 26 21 27 20 8 -7 21 -1 41 17 12 12 22 18 22 15 0 -8 97
43 105 55 4 6 10 8 15 5 4 -3 13 2 20 10 6 7 19 11 27 8 12 -5 14 -3 8 7 -6
10 -4 12 9 7 9 -4 15 -3 12 2 -3 5 38 26 92 47 53 21 108 45 122 54 26 18 81
35 165 52 28 6 70 17 94 25 24 9 60 17 80 20 20 2 44 5 54 7 9 2 17 0 17 -5 0
-6 7 -6 18 -1 9 5 31 10 48 10 17 0 58 9 90 18 73 22 53 19 159 28 49 5 98 12
110 16 33 13 303 11 347 -2z m1938 -888 c0 -15 -5 -12 -26 11 -19 22 -19 22 4
10 12 -6 22 -16 22 -21z m182 -185 c6 0 13 -6 16 -12 2 -7 0 -13 -4 -13 -12 0
-54 42 -54 54 0 6 7 2 16 -9 8 -11 20 -20 26 -20z m168 -227 c0 -6 -6 -5 -15
2 -8 7 -15 14 -15 16 0 2 7 1 15 -2 8 -4 15 -11 15 -16z m-5087 -244 c-4 -10
-9 -12 -15 -6 -12 12 -1 35 12 27 5 -3 6 -13 3 -21z m-78 -154 c-3 -5 -12 -10
-18 -10 -7 0 -6 4 3 10 19 12 23 12 15 0z m-83 -185 c-6 -12 -11 -14 -16 -6
-4 6 -2 11 4 11 7 0 9 7 5 18 -5 13 -3 14 5 5 8 -7 9 -17 2 -28z"/>
<path d="M2940 6023 c-94 -9 -316 -47 -410 -70 -524 -126 -981 -383 -1366
-767 -225 -226 -358 -399 -497 -651 -349 -631 -439 -1418 -242 -2100 186 -641
580 -1177 1143 -1554 413 -276 854 -434 1350 -482 156 -15 573 -6 712 16 521
81 947 260 1360 571 677 510 1073 1259 1106 2089 32 788 -267 1546 -831 2110
-465 466 -1061 752 -1730 830 -118 14 -490 19 -595 8z m640 -82 c137 -20 291
-51 352 -72 32 -10 66 -19 76 -19 21 0 212 -66 312 -107 126 -52 364 -179 455
-243 33 -22 78 -53 100 -68 198 -133 582 -506 559 -543 -3 -5 -1 -8 4 -7 12 4
72 -70 72 -88 0 -8 9 -19 19 -26 10 -6 17 -17 14 -23 -2 -7 10 -24 26 -38 20
-16 29 -31 25 -41 -3 -9 -1 -16 5 -16 6 0 11 -9 11 -19 0 -10 8 -22 17 -25 12
-5 13 -10 5 -18 -15 -15 -3 -38 21 -38 20 0 20 0 1 -15 -16 -13 -16 -14 -1 -9
9 3 17 2 17 -4 0 -6 -8 -9 -17 -7 -10 1 -17 8 -15 15 1 6 -6 14 -17 17 -19 5
-36 56 -25 74 3 5 0 8 -8 7 -7 -2 -12 5 -12 14 1 10 -2 15 -7 12 -5 -3 -9 1
-9 9 0 10 -9 13 -31 11 -29 -4 -30 -2 -18 14 13 15 12 16 -3 4 -15 -12 -15
-17 8 -68 38 -86 50 -179 36 -275 -24 -164 -86 -247 -262 -351 -237 -139 -318
-234 -328 -383 -8 -133 65 -290 213 -454 36 -40 64 -76 61 -79 -7 -7 -151 89
-233 155 -123 99 -214 222 -254 345 -20 61 -24 93 -24 193 0 136 21 224 74
308 17 26 28 47 26 47 -3 0 -19 -21 -35 -47 -17 -26 -30 -43 -30 -39 0 4 -6 1
-12 -6 -16 -17 -49 -104 -54 -143 -2 -16 -8 -52 -14 -80 -12 -64 -15 -188 -5
-205 4 -7 2 -16 -6 -21 -12 -7 -12 -9 0 -9 8 0 11 -7 8 -20 -3 -11 -1 -23 4
-26 12 -7 11 -61 -1 -69 -6 -3 -10 4 -11 17 0 21 -1 21 -8 4 -5 -14 -10 -16
-15 -8 -4 7 -5 16 -2 20 2 4 1 14 -4 21 -4 8 -4 29 2 47 7 26 5 39 -9 61 -10
15 -12 24 -5 20 7 -5 12 -3 12 7 0 8 -4 17 -9 20 -5 3 -8 22 -7 41 1 19 -1 35
-4 35 -9 0 -10 23 -14 190 -7 264 26 569 74 694 20 54 88 125 130 136 44 12
80 51 80 87 0 31 -26 93 -39 93 -6 0 -11 -22 -11 -50 l0 -50 -39 0 c-107 0
-188 -133 -225 -370 -33 -207 -38 -376 -33 -1125 4 -778 7 -839 53 -1009 28
-100 81 -206 125 -248 35 -34 46 -38 90 -38 l50 0 -3 -53 -3 -52 -472 0 -473
0 0 52 c0 46 3 53 20 53 61 0 94 46 134 183 65 225 85 509 89 1277 l2 545
-106 -265 c-115 -287 -258 -624 -392 -925 -154 -347 -419 -930 -427 -938 -15
-17 -654 1450 -911 2093 l-34 85 -3 -575 c-4 -746 10 -981 73 -1248 37 -156
82 -232 137 -232 27 0 28 -1 28 -55 l0 -55 -470 1 -470 0 0 39 c0 60 7 70 51
70 74 0 152 101 198 255 53 180 54 185 58 1010 5 813 -1 1002 -38 1191 -25
131 -41 177 -84 239 -46 67 -94 98 -140 93 -31 -3 -35 -1 -35 18 0 29 -10 54
-21 54 -5 0 -9 -25 -9 -55 0 -42 5 -60 20 -75 11 -11 23 -20 28 -21 4 0 17 -2
29 -3 60 -7 132 -101 157 -206 35 -149 49 -461 22 -513 -8 -15 -13 -37 -11
-48 3 -12 1 -18 -3 -15 -8 8 -9 13 -11 49 -1 17 -3 19 -10 7 -6 -8 -7 -18 -5
-22 3 -4 0 -8 -5 -8 -6 0 -11 11 -11 24 0 20 -4 23 -22 18 -20 -5 -21 -6 -3
-12 12 -4 15 -9 7 -14 -7 -4 -21 9 -37 34 -31 49 -52 71 -88 89 -15 8 -27 18
-27 23 0 4 -6 8 -14 8 -7 0 -19 7 -26 15 -7 8 -16 12 -21 10 -4 -3 -12 3 -18
12 -6 10 -11 14 -11 9 0 -5 -6 -5 -13 0 -7 5 -2 -1 12 -13 14 -12 27 -20 29
-18 7 6 79 -82 108 -132 61 -104 87 -284 60 -413 -31 -146 -126 -292 -258
-397 -82 -66 -260 -185 -266 -178 -2 2 28 39 68 82 86 92 134 159 124 175 -5
7 -3 8 6 3 10 -6 12 -4 7 9 -4 9 -3 15 2 12 4 -3 23 27 41 66 25 54 34 90 38
145 11 171 -50 253 -312 416 -145 90 -213 158 -247 245 -18 47 -23 78 -23 172
-1 63 2 131 7 150 l7 35 -21 -34 c-11 -18 -23 -55 -26 -82 -3 -27 -9 -49 -12
-49 -3 0 -6 -25 -6 -55 0 -43 -3 -54 -14 -50 -12 5 -12 3 0 -11 7 -9 14 -33
15 -53 1 -20 7 -48 14 -61 10 -19 10 -25 1 -28 -8 -3 -5 -9 8 -19 13 -8 21
-25 21 -42 0 -32 16 -51 43 -51 13 0 17 -5 14 -14 -4 -10 7 -23 29 -36 44 -28
66 -49 59 -60 -3 -4 2 -11 11 -14 8 -3 12 -2 9 4 -3 6 -3 10 0 10 10 0 65 -30
65 -36 0 -3 -6 -2 -12 2 -7 4 -5 -2 6 -14 10 -12 23 -20 30 -19 6 1 10 -4 8
-10 -1 -7 2 -13 7 -13 5 0 12 6 14 13 4 7 8 3 12 -10 4 -13 13 -23 21 -23 20
0 64 -45 64 -67 0 -12 -7 -19 -21 -20 -15 -1 -19 2 -15 15 5 15 5 15 -6 1 -7
-9 -18 -14 -25 -12 -6 2 -14 -1 -18 -6 -4 -8 -12 -8 -25 -1 -19 10 -39 -4 -26
-17 3 -4 6 0 6 8 0 11 2 11 10 -1 20 -31 12 -41 -20 -25 -34 18 -60 19 -60 4
0 -8 -5 -8 -15 1 -12 10 -15 10 -15 -4 0 -18 -15 -22 -25 -6 -3 6 0 10 7 10 9
0 9 3 -2 10 -11 7 -17 5 -22 -8 -6 -16 -7 -16 -7 0 -1 22 32 41 46 27 8 -8 13
-7 18 2 5 7 4 10 -3 5 -6 -3 -13 -2 -17 4 -4 7 -12 7 -25 0 -10 -5 -32 -10
-49 -10 -28 0 -36 -8 -32 -32 0 -5 -2 -7 -6 -7 -27 4 -45 -3 -40 -16 4 -8 2
-17 -4 -20 -5 -4 -9 -3 -8 2 5 27 -4 33 -46 33 -25 0 -45 4 -45 9 0 5 -8 11
-17 13 -10 3 -24 18 -32 34 -24 52 -29 59 -40 57 -9 -3 -16 25 -12 50 0 4 -10
7 -24 7 -17 0 -25 -6 -26 -17 0 -15 -2 -15 -8 2 -5 11 -7 23 -4 27 2 4 -2 6
-9 3 -8 -3 -19 7 -27 26 -8 18 -18 28 -27 25 -21 -8 -27 11 -7 23 10 6 12 11
6 11 -7 0 -13 12 -13 28 0 21 2 24 10 12 8 -11 9 -8 4 13 -4 16 -2 27 4 27 6
0 18 25 27 55 8 30 20 55 26 55 6 0 9 6 6 14 -3 7 1 25 8 40 8 15 10 24 5 21
-14 -9 -12 1 3 17 12 13 30 50 57 113 24 58 51 107 65 117 6 4 6 8 2 8 -7 0 3
21 60 120 116 203 311 433 544 640 46 42 102 89 124 105 22 16 47 36 55 44 17
17 215 147 276 182 347 198 656 301 1084 365 151 22 529 19 700 -5z m2119
-1471 c-9 -6 -8 -12 4 -25 21 -20 21 -25 1 -25 -9 0 -12 5 -8 13 5 7 0 6 -11
-3 -17 -14 -18 -13 -12 10 4 14 7 30 7 37 0 7 7 10 16 6 12 -4 13 -8 3 -13z
m20 -78 c7 -7 11 -15 9 -17 -6 -6 -58 18 -58 26 0 11 34 5 49 -9z m-5193 -487
c-3 -23 -12 -26 -13 -5 -1 11 2 20 7 20 4 0 7 -7 6 -15z m34 -45 c0 -5 -5 -10
-11 -10 -5 0 -7 5 -4 10 3 6 8 10 11 10 2 0 4 -4 4 -10z m725 -110 c7 0 15 -7
19 -15 3 -8 11 -15 17 -15 8 0 7 6 -2 18 -13 15 -12 16 4 3 10 -8 16 -21 15
-30 -2 -9 6 -24 17 -34 11 -10 15 -16 8 -13 -11 6 -30 -29 -25 -46 1 -5 -3 -8
-9 -8 -5 0 -7 -5 -3 -12 4 -7 3 -8 -5 -4 -6 4 -9 11 -6 16 3 4 -1 11 -7 13 -8
3 -6 6 5 6 33 2 17 17 -18 17 -19 -1 -35 -4 -35 -8 0 -5 -9 -8 -21 -8 -13 0
-18 4 -13 13 6 10 4 10 -7 0 -18 -17 -29 -16 -29 3 0 8 -4 12 -10 9 -5 -3 -10
-1 -10 5 0 6 -4 8 -10 5 -5 -3 -10 0 -10 8 0 11 36 16 58 8 11 -4 17 2 18 19
3 39 6 45 13 25 7 -17 9 -15 16 15 4 19 10 29 12 23 3 -7 11 -13 18 -13z
m-665 -19 c6 -11 6 -22 1 -25 -5 -3 -11 5 -13 19 -6 30 -2 32 12 6z m3447
-243 c-3 -8 -6 -5 -6 6 -1 11 2 17 5 13 3 -3 4 -12 1 -19z m-7 -64 c0 -2 -8 0
-19 5 -10 6 -22 7 -26 3 -5 -4 -5 -1 -1 6 5 9 12 9 27 2 10 -6 19 -13 19 -16z
m625 16 c3 -5 1 -10 -4 -10 -6 0 -11 5 -11 10 0 6 2 10 4 10 3 0 8 -4 11 -10z
m-3892 -37 c-3 -7 -6 -13 -8 -13 -2 0 -5 6 -8 13 -3 8 1 14 8 14 7 0 11 -6 8
-14z m142 -2 c-3 -5 3 -12 14 -16 40 -12 82 -69 103 -138 26 -85 21 -161 -16
-265 l-25 -74 37 34 c121 110 301 188 432 188 162 0 249 -115 209 -276 l-11
-44 -59 55 c-67 62 -127 85 -219 85 -181 0 -332 -102 -420 -285 -120 -246 -92
-496 83 -767 50 -77 140 -196 133 -175 -43 128 -51 167 -51 262 0 157 35 220
155 282 66 33 191 44 268 22 51 -14 132 -84 132 -114 0 -16 -4 -15 -30 10 -24
23 -41 30 -88 33 -145 10 -225 -107 -225 -328 1 -118 31 -212 99 -312 120
-176 370 -324 632 -374 101 -19 137 -17 205 10 31 13 57 20 57 16 0 -16 -104
-99 -162 -130 -92 -49 -179 -71 -309 -77 -90 -4 -134 -2 -195 12 -250 55 -486
210 -719 471 -195 220 -259 381 -272 689 -11 252 14 344 170 648 98 190 118
250 101 309 -5 17 -22 40 -37 52 -25 18 -31 19 -60 7 -57 -23 -77 -24 -97 -6
-24 22 -27 83 -5 125 9 17 15 33 15 37 0 5 5 9 10 9 6 1 15 2 21 3 5 0 8 4 5
9 -2 4 21 9 52 10 31 2 59 5 61 8 8 8 12 4 6 -5z m4675 -16 c46 -24 70 -62 70
-113 0 -76 -35 -98 -104 -65 -29 13 -40 14 -64 4 -42 -17 -55 -49 -50 -118 4
-62 19 -95 140 -323 37 -69 82 -168 100 -220 33 -95 33 -95 33 -285 -1 -295
-29 -403 -152 -589 -79 -119 -293 -337 -421 -429 -105 -76 -265 -158 -372
-192 -233 -74 -514 -25 -675 118 -53 48 -57 69 -7 43 102 -52 354 -5 562 106
280 148 410 350 397 614 -7 148 -45 225 -132 265 -69 32 -130 24 -182 -24 -31
-28 -30 -3 2 39 42 55 106 79 210 79 112 -1 190 -28 251 -89 54 -53 69 -105
68 -226 -1 -73 -8 -114 -27 -175 -15 -43 -25 -80 -23 -82 3 -4 101 132 152
212 50 79 108 215 124 290 65 313 -119 651 -387 711 -148 33 -280 -1 -341 -88
-15 -21 -30 -38 -33 -38 -10 0 -29 85 -29 130 0 22 7 57 17 78 9 20 17 40 18
45 2 4 4 10 5 15 1 4 2 10 2 13 -1 3 5 6 13 6 8 0 11 -5 8 -10 -3 -5 9 1 27
14 29 22 41 24 128 23 82 -2 111 -7 184 -34 94 -34 180 -85 249 -147 39 -35
42 -36 35 -13 -48 170 -51 186 -39 264 18 129 84 206 176 206 21 0 51 -7 67
-15z m-1600 -27 c0 -4 -7 -8 -15 -8 -8 0 -15 4 -15 8 0 5 7 9 15 9 8 0 15 -4
15 -9z m-30 -100 c0 -5 -7 -8 -15 -8 -15 0 -20 21 -8 33 7 7 23 -11 23 -25z
m-95 -138 c3 -5 1 -10 -4 -10 -6 0 -11 5 -11 10 0 6 2 10 4 10 3 0 8 -4 11
-10z m-22 -55 c-3 -9 -8 -14 -10 -11 -3 3 -2 9 2 15 9 16 15 13 8 -4z m-2458
-425 c26 -12 56 -37 67 -54 53 -86 -37 -209 -142 -191 -106 18 -232 -86 -275
-228 l-13 -42 -7 29 c-12 45 11 169 44 234 16 31 52 95 81 142 28 47 54 98 57
114 l6 28 67 -4 c42 -3 86 -14 115 -28z m3805 7 c0 -13 30 -70 66 -126 100
-156 117 -199 121 -306 l4 -90 -20 52 c-54 146 -169 234 -284 218 -53 -7 -102
16 -134 64 -69 103 28 208 195 210 48 1 52 -1 52 -22z m-2701 -1178 c62 -61
97 -130 106 -212 15 -125 -51 -202 -263 -308 -70 -34 -120 -64 -112 -66 19 -4
131 26 232 63 73 27 79 28 147 16 85 -14 164 -15 209 -3 17 5 32 6 32 1 0 -14
-132 -144 -175 -173 -128 -84 -348 -71 -544 34 -74 40 -191 125 -191 140 0 4
37 -6 81 -22 51 -18 86 -26 93 -21 14 12 47 12 40 0 -3 -4 -13 -8 -22 -9 -14
0 -13 -2 3 -9 21 -8 60 9 60 28 0 14 14 27 28 27 18 0 102 111 141 184 33 64
58 143 70 227 5 38 -2 94 -20 153 -6 21 -5 22 12 13 11 -6 44 -34 73 -63z
m1486 54 c-25 -63 -28 -122 -12 -203 27 -140 105 -277 220 -388 l44 -43 59 17
c32 9 75 24 94 34 103 51 104 31 3 -45 -190 -142 -409 -197 -578 -144 -62 19
-77 30 -164 114 l-96 94 73 -6 c43 -4 108 -1 158 7 83 13 86 13 162 -14 42
-15 102 -37 132 -47 30 -11 66 -18 80 -17 19 2 -5 18 -100 65 -121 60 -217
129 -242 176 -35 66 -26 186 20 270 39 72 170 187 147 130z"/>
<path d="M2428 4963 c7 -3 16 -2 19 1 4 3 -2 6 -13 5 -11 0 -14 -3 -6 -6z"/>
<path d="M4673 4963 c26 -2 67 -2 90 0 23 2 2 3 -48 3 -49 0 -68 -1 -42 -3z"/>
<path d="M3902 4934 c-1 -12 -5 -42 -8 -66 -8 -59 14 -83 85 -93 65 -9 81 -30
81 -106 0 -39 -8 -75 -26 -115 -50 -115 -111 -245 -201 -433 -35 -74 -62 -135
-60 -137 11 -11 326 677 332 725 12 87 -40 144 -132 146 l-58 0 -6 50 c-3 28
-7 41 -7 29z"/>
<path d="M2528 4898 l-3 -43 -50 -1 c-84 -1 -125 -43 -125 -125 0 -45 14 -73
380 -784 373 -726 525 -1015 530 -1015 5 0 21 32 318 640 176 360 202 415 184
395 -4 -5 -42 -80 -82 -165 -40 -85 -78 -160 -84 -165 -6 -6 -12 -17 -14 -25
-5 -34 -66 -149 -75 -143 -6 3 -7 1 -3 -5 8 -13 -55 -143 -66 -136 -4 3 -8 2
-9 -3 -5 -56 -28 -103 -47 -96 -13 4 -14 3 -3 -5 11 -8 11 -14 0 -33 -7 -13
-19 -29 -27 -35 -8 -6 -12 -16 -8 -22 4 -7 2 -12 -4 -12 -6 0 -9 -4 -5 -9 3
-6 -1 -13 -8 -18 -20 -12 -39 -51 -31 -65 4 -6 1 -9 -7 -6 -8 3 -13 11 -11 17
1 6 -5 11 -13 11 -8 0 -15 5 -15 10 0 6 -7 10 -15 10 -9 0 -15 9 -15 21 0 11
-9 33 -19 48 -11 15 -23 39 -26 54 -4 14 -13 31 -21 38 -8 6 -14 16 -14 22 0
5 -11 25 -25 43 -14 18 -25 37 -24 41 3 20 -2 34 -11 28 -6 -3 -7 1 -4 9 4 9
-1 18 -10 22 -9 3 -14 10 -11 15 3 4 -8 27 -24 50 -17 23 -28 45 -26 49 3 4
-2 10 -10 14 -8 3 -12 12 -9 21 4 8 1 15 -7 15 -7 0 -9 3 -6 7 4 3 -1 16 -12
27 -11 12 -36 55 -57 96 -21 41 -41 77 -44 80 -3 3 -16 28 -29 55 -12 28 -28
59 -34 70 -6 11 -28 54 -50 95 -22 41 -66 127 -99 190 -33 63 -82 160 -110
215 -27 55 -54 109 -60 120 -91 160 -86 244 16 259 59 9 81 35 79 93 -3 75
-40 101 -45 31z"/>
<path d="M5531 4694 c0 -11 3 -14 6 -6 3 7 2 16 -1 19 -3 4 -6 -2 -5 -13z"/>
<path d="M966 4665 c-22 -57 36 -188 102 -231 l27 -18 -18 25 c-32 46 -64 114
-76 164 -15 64 -26 83 -35 60z"/>
<path d="M5447 4654 c-7 -42 -14 -65 -27 -99 -6 -16 -11 -31 -11 -32 4 -14 -4
-29 -36 -65 l-37 -43 38 35 c61 56 110 176 88 216 -8 14 -10 13 -15 -12z"/>
<path d="M900 4619 c-7 -11 -10 -23 -7 -25 2 -2 9 7 15 21 14 30 7 33 -8 4z"/>
<path d="M1105 4420 c-6 -9 53 -45 61 -37 3 2 -9 10 -26 17 -16 7 -27 16 -24
21 3 5 3 9 0 9 -3 0 -7 -4 -11 -10z"/>
<path d="M5050 4300 c-9 -6 -10 -10 -3 -10 6 0 15 5 18 10 8 12 4 12 -15 0z"/>
<path d="M4915 4220 c-4 -6 -11 -7 -17 -4 -7 4 -8 2 -4 -5 6 -9 11 -9 22 0 14
11 18 19 10 19 -3 0 -8 -5 -11 -10z"/>
<path d="M4849 4163 c-13 -16 -12 -17 4 -4 16 13 21 21 13 21 -2 0 -10 -8 -17
-17z"/>
<path d="M561 3954 c0 -11 3 -14 6 -6 3 7 2 16 -1 19 -3 4 -6 -2 -5 -13z"/>
<path d="M1115 3769 c-17 -6 -17 -8 -2 -8 9 -1 20 -1 23 0 4 0 11 -5 15 -13 7
-10 9 -9 9 3 0 21 -19 29 -45 18z"/>
<path d="M1075 3760 c-4 -6 -11 -8 -16 -5 -5 4 -9 1 -9 -4 0 -16 16 -13 30 4
7 8 10 15 7 15 -3 0 -9 -5 -12 -10z"/>
<path d="M726 3745 c6 -14 29 -14 44 1 6 6 -1 10 -20 10 -19 1 -27 -2 -24 -11z"/>
<path d="M1285 3681 c-3 -5 -2 -12 3 -15 5 -3 9 1 9 9 0 17 -3 19 -12 6z"/>
<path d="M4960 5546 c0 -2 8 -10 18 -17 15 -13 16 -12 3 4 -13 16 -21 21 -21
13z"/>
<path d="M5190 5355 c19 -19 36 -35 39 -35 3 0 -10 16 -29 35 -19 19 -36 35
-39 35 -3 0 10 -16 29 -35z"/>
</g>
</svg>
