<?xml version="1.0" standalone="no"?>
<!DOCTYPE svg PUBLIC "-//W3C//DTD SVG 20010904//EN"
 "http://www.w3.org/TR/2001/REC-SVG-20010904/DTD/svg10.dtd">
<svg version="1.0" xmlns="http://www.w3.org/2000/svg"
 width="838.000000pt" height="838.000000pt" viewBox="0 0 838.000000 838.000000"
 preserveAspectRatio="xMidYMid meet">
<metadata>
Created by potrace 1.14, written by Peter Selinger 2001-2017
</metadata>
<g transform="translate(0.000000,838.000000) scale(0.100000,-0.100000)"
fill="#000000" stroke="none">
<path d="M300 4185 l0 -3855 3895 0 3895 0 0 3855 0 3855 -3895 0 -3895 0 0
-3855z m650 3433 c148 -76 148 -273 -1 -349 -83 -42 -196 -14 -246 60 -51 75
-52 148 -3 224 52 82 160 110 250 65z m6675 3 c112 -51 150 -187 81 -292 -67
-101 -237 -106 -319 -10 -133 159 48 389 238 302z m-650 -562 c77 -29 132 -74
169 -139 28 -50 31 -63 31 -142 0 -78 -2 -88 -24 -107 -13 -11 -27 -19 -30
-16 -4 2 -16 -10 -26 -28 -11 -18 -20 -26 -23 -19 -3 10 -7 10 -19 1 -12 -10
-16 -10 -24 2 -8 11 -9 10 -7 -6 2 -13 -2 -19 -11 -17 -8 2 -17 -2 -21 -9 -8
-13 -30 -4 -30 12 0 6 5 7 12 3 6 -4 8 -3 5 4 -11 16 -42 7 -44 -14 -3 -18 -2
-18 5 -1 7 17 9 16 20 -8 15 -32 15 -47 1 -22 -8 14 -14 15 -30 6 -12 -6 -23
-8 -27 -5 -3 3 0 6 6 6 7 0 12 6 12 14 0 9 -7 12 -20 9 -14 -4 -20 0 -20 10 0
9 -5 19 -12 23 -7 4 -8 3 -4 -5 4 -6 1 -18 -7 -26 -13 -13 -16 -13 -21 1 -5
14 -9 14 -24 3 -14 -11 -15 -11 -4 1 6 8 12 20 12 28 0 10 -3 10 -16 -2 -21
-21 -27 -20 -15 2 8 15 5 18 -17 20 -38 3 -60 28 -56 63 3 27 2 29 -16 19 -14
-8 -20 -8 -20 0 0 6 10 15 23 20 13 5 16 9 7 10 -8 1 -25 3 -38 6 -14 2 -21 0
-17 -6 10 -16 -1 -11 -16 7 -10 11 -10 14 -1 9 6 -4 12 -2 12 3 0 6 -6 11 -14
11 -9 0 -12 8 -9 24 3 13 0 27 -6 30 -6 4 -11 13 -11 19 1 7 10 1 21 -12 11
-13 22 -22 24 -19 3 2 -4 14 -15 26 -24 26 -28 51 -5 32 9 -7 15 -8 15 -2 0 5
-7 13 -16 16 -11 4 -18 -1 -21 -14 -5 -17 -23 -29 -23 -15 0 20 34 79 66 115
83 91 205 122 319 79z m-2323 -22 c334 -51 664 -159 978 -318 368 -186 708
-462 965 -784 316 -395 548 -946 610 -1445 20 -167 20 -560 -1 -740 -73 -644
-363 -1258 -799 -1695 -193 -193 -465 -385 -730 -515 -253 -124 -483 -199
-760 -247 -92 -16 -245 -17 -1861 -20 l-1761 -3 -5 357 c-3 197 -3 1500 0
2896 l5 2538 1626 -4 c1450 -3 1638 -5 1733 -20z m1948 -202 c0 -8 5 -15 10
-15 6 0 10 -5 10 -10 0 -6 -7 -6 -18 1 -19 12 -26 39 -10 39 4 0 8 -7 8 -15z
m110 -145 c0 -5 -7 -7 -15 -4 -8 4 -15 8 -15 10 0 2 7 4 15 4 8 0 15 -4 15
-10z m435 -50 c-3 -5 -12 -10 -18 -10 -7 0 -6 4 3 10 19 12 23 12 15 0z m-75
-49 c0 -5 -7 -11 -14 -14 -10 -4 -13 -1 -9 9 6 15 23 19 23 5z m30 -11 c0 -5
-2 -10 -4 -10 -3 0 -8 5 -11 10 -3 6 -1 10 4 10 6 0 11 -4 11 -10z m-215 -28
c-3 -3 -11 0 -18 7 -9 10 -8 11 6 5 10 -3 15 -9 12 -12z m764 -5500 c57 -34
91 -96 91 -164 0 -63 -18 -106 -63 -145 -47 -41 -98 -57 -159 -50 -169 20
-234 211 -113 332 70 70 158 80 244 27z m-6695 5 c22 -12 53 -39 70 -60 25
-31 31 -48 33 -100 5 -76 -20 -126 -85 -172 -38 -26 -52 -30 -111 -30 -57 0
-74 4 -110 28 -56 37 -96 120 -87 179 8 47 36 106 62 129 62 54 160 65 228 26z"/>
<path d="M6788 6867 c-60 -60 -57 -145 7 -195 60 -47 130 -38 185 25 25 28 30
42 30 83 0 41 -5 56 -29 82 -25 28 -35 32 -93 36 -63 4 -66 3 -100 -31z"/>
<path d="M6640 6802 c0 -10 27 -29 43 -29 17 0 14 11 -4 13 -22 3 -23 5 -9 14
12 7 10 9 -8 7 -12 0 -22 -3 -22 -5z"/>
<path d="M6730 6671 c0 -10 19 -25 25 -20 1 2 -3 10 -11 17 -8 7 -14 8 -14 3z"/>
<path d="M7073 6645 c0 -8 4 -12 9 -9 5 3 6 10 3 15 -9 13 -12 11 -12 -6z"/>
<path d="M7050 6641 c0 -7 -5 -9 -12 -5 -7 5 -8 3 -3 -5 5 -9 10 -10 18 -2 6
6 8 14 4 18 -4 3 -7 1 -7 -6z"/>
<path d="M6830 6615 c0 -8 5 -15 10 -15 6 0 10 7 10 15 0 8 -4 15 -10 15 -5 0
-10 -7 -10 -15z"/>
<path d="M1610 6738 c0 -7 -1 -2831 0 -3930 l0 -1228 1155 0 1155 0 0 2580 0
2580 -1155 0 c-635 0 -1155 -1 -1155 -2z m931 -628 c114 -228 212 -416 216
-417 5 -2 103 186 217 417 l207 420 240 0 239 0 0 -1219 0 -1219 -51 -46 c-28
-25 -55 -46 -61 -46 -5 0 -7 -3 -5 -7 3 -5 -10 -9 -29 -10 l-34 -2 -2 1122 -3
1122 -256 -515 c-262 -527 -431 -877 -444 -917 -3 -13 -10 -23 -14 -23 -4 0
-45 78 -91 173 -46 94 -151 309 -233 477 -82 168 -181 370 -219 450 -93 195
-171 350 -175 346 -2 -1 -3 -506 -3 -1120 0 -1056 -1 -1118 -18 -1113 -9 2
-23 6 -31 8 -8 2 -40 29 -73 60 l-58 56 0 1211 0 1212 237 -2 236 -3 208 -415z
m-243 -810 l50 -54 7 -442 c4 -244 5 -450 2 -458 -4 -9 -7 -82 -8 -163 -1
-143 -2 -147 -17 -115 -11 23 -22 32 -34 29 -14 -4 -15 -2 -5 14 10 16 9 21
-3 29 -12 8 -10 10 9 10 33 0 22 9 -15 12 -17 1 -31 8 -31 15 0 17 14 17 19 1
3 -9 9 -8 22 5 10 9 14 17 10 17 -5 0 -3 5 4 12 7 7 12 17 12 23 0 5 -4 4 -9
-4 -8 -12 -12 -12 -25 -2 -9 8 -16 9 -16 3 0 -6 6 -12 13 -15 6 -2 8 -8 4 -13
-4 -5 -12 -2 -16 5 -6 9 -11 10 -15 2 -10 -15 -26 -4 -26 17 0 15 2 15 10 2 9
-13 11 -13 20 0 14 22 12 33 -5 27 -8 -4 -17 -2 -20 3 -4 6 1 10 9 10 19 0 22
20 4 21 -7 0 -4 4 6 8 13 5 16 10 8 14 -6 4 -20 -2 -31 -14 l-20 -22 -12 26
c-15 32 -5 64 15 48 14 -11 26 -5 26 13 0 6 -4 5 -9 -2 -7 -11 -9 -11 -14 2
-4 9 -1 16 6 16 7 0 6 4 -3 10 -11 7 -17 5 -22 -8 -5 -12 -7 -10 -7 11 -1 24
2 27 24 23 14 -3 23 -1 20 5 -4 5 -15 9 -26 9 -19 0 -19 12 -19 513 l0 512 29
-50 c16 -28 51 -75 79 -105z m1031 -518 c0 -302 -2 -343 -15 -338 -10 4 -13 2
-7 -7 4 -6 8 -19 8 -27 0 -8 4 -20 8 -27 4 -6 3 -15 -3 -18 -8 -5 -8 -11 0
-20 7 -9 7 -15 -3 -23 -10 -9 -23 -5 -53 15 -21 15 -33 19 -25 10 14 -18 2
-24 -15 -8 -5 6 -14 3 -23 -6 -12 -13 -11 -14 10 -8 22 7 23 6 10 -9 -8 -9
-10 -16 -5 -14 5 2 9 -1 9 -7 0 -5 -9 -9 -20 -8 -16 1 -16 1 -2 -3 9 -3 17
-10 17 -15 0 -5 4 -9 10 -9 5 0 9 5 7 12 -1 7 3 12 10 13 18 0 28 15 10 15
-10 0 -14 5 -11 15 7 18 25 20 21 3 -1 -7 5 -13 13 -14 36 -3 40 -5 40 -15 0
-8 -4 -9 -13 0 -18 14 -25 6 -20 -24 3 -13 13 -26 22 -28 9 -3 1 -4 -16 -3
-33 1 -44 11 -21 18 6 2 9 9 7 16 -3 9 -10 8 -27 -4 -19 -13 -21 -18 -10 -32
10 -14 10 -15 -2 -4 -17 15 -39 17 -23 1 13 -13 5 -49 -11 -49 -6 0 -3 -5 7
-11 9 -5 17 -15 17 -22 0 -9 -2 -9 -8 0 -6 9 -13 7 -26 -8 -17 -20 -17 -21 6
-14 20 5 21 5 5 -5 -14 -9 -15 -15 -7 -25 7 -9 7 -15 1 -19 -28 -18 -31 46
-31 618 0 322 4 586 8 586 12 0 102 90 102 101 0 5 8 22 18 36 17 27 17 24 23
-132 4 -88 7 -315 8 -503z m-75 -600 c2 -4 0 -14 -6 -22 -8 -12 -9 -11 -4 4 5
14 2 17 -9 12 -9 -3 -13 -2 -10 4 7 12 22 13 29 2z m-58 -154 c4 -7 3 -8 -4
-4 -7 4 -12 2 -12 -5 0 -7 -3 -10 -6 -6 -6 5 3 27 11 27 2 0 7 -5 11 -12z"/>
<path d="M2200 4499 c0 -5 5 -7 10 -4 6 3 10 8 10 11 0 2 -4 4 -10 4 -5 0 -10
-5 -10 -11z"/>
<path d="M2256 4341 c-3 -4 6 -8 20 -9 13 -1 24 0 24 2 0 7 -40 14 -44 7z"/>
<path d="M2200 4335 c0 -5 5 -17 10 -25 5 -8 10 -10 10 -5 0 6 -5 17 -10 25
-5 8 -10 11 -10 5z"/>
<path d="M2270 4280 c0 -5 5 -10 11 -10 5 0 7 5 4 10 -3 6 -8 10 -11 10 -2 0
-4 -4 -4 -10z"/>
<path d="M2280 4250 c0 -5 5 -10 10 -10 6 0 10 5 10 10 0 6 -4 10 -10 10 -5 0
-10 -4 -10 -10z"/>
<path d="M2325 4200 c-3 -5 -1 -10 4 -10 6 0 11 5 11 10 0 6 -2 10 -4 10 -3 0
-8 -4 -11 -10z"/>
<path d="M2315 4120 c-3 -6 1 -7 9 -4 18 7 21 14 7 14 -6 0 -13 -4 -16 -10z"/>
<path d="M3293 4411 c0 -11 5 -18 9 -15 4 3 5 11 1 19 -7 21 -12 19 -10 -4z"/>
<path d="M3260 4375 c-11 -13 -10 -14 4 -9 9 3 16 10 16 15 0 13 -6 11 -20 -6z"/>
<path d="M3298 4373 c7 -3 16 -2 19 1 4 3 -2 6 -13 5 -11 0 -14 -3 -6 -6z"/>
<path d="M3278 4353 c7 -3 16 -2 19 1 4 3 -2 6 -13 5 -11 0 -14 -3 -6 -6z"/>
<path d="M3298 4333 c7 -3 16 -2 19 1 4 3 -2 6 -13 5 -11 0 -14 -3 -6 -6z"/>
<path d="M4230 6284 l0 -454 173 0 c95 0 211 -5 257 -10 745 -90 1315 -618
1481 -1373 26 -118 38 -453 20 -578 -59 -410 -250 -777 -541 -1037 -201 -179
-437 -307 -700 -377 -158 -42 -265 -56 -482 -62 l-208 -6 0 -403 0 -404 159 0
c466 0 806 70 1146 235 338 164 612 385 851 685 272 342 431 698 509 1144 117
664 -18 1344 -376 1879 -112 169 -193 270 -327 404 -244 247 -544 451 -846
578 -305 128 -688 213 -1018 228 l-98 4 0 -453z m409 201 c432 -51 818 -200
1145 -444 676 -504 1044 -1294 977 -2101 -21 -250 -68 -469 -145 -678 -82
-224 -173 -391 -315 -580 -230 -304 -524 -544 -867 -704 -223 -105 -433 -161
-372 -100 7 7 8 12 2 12 -5 0 -18 -14 -28 -30 -9 -17 -22 -28 -27 -24 -5 3
-16 0 -24 -6 -11 -9 -15 -9 -15 -1 0 6 5 11 11 11 6 0 9 7 5 15 -3 8 -1 15 4
15 6 0 10 10 9 23 0 14 -2 17 -6 7 -3 -8 -14 -23 -23 -32 -15 -14 -21 -15 -36
-3 -15 11 -16 15 -5 29 7 9 9 16 3 16 -5 0 -13 -8 -17 -17 -7 -17 -8 -16 -15
2 -6 14 -9 15 -9 5 -1 -9 4 -21 11 -28 6 -6 9 -15 5 -18 -4 -4 -15 3 -26 15
-12 13 -22 18 -26 11 -3 -5 -1 -10 4 -10 6 0 11 -5 11 -10 0 -6 -8 -5 -19 2
-11 7 -18 15 -16 19 3 3 -7 7 -21 7 -14 0 -22 -3 -18 -7 12 -8 16 -31 6 -31
-4 0 -14 9 -22 20 -8 11 -19 20 -24 20 -6 0 -5 -5 2 -12 15 -15 15 -28 1 -28
-5 0 -7 5 -4 10 3 6 -1 10 -10 10 -9 0 -13 5 -10 10 3 6 2 10 -4 10 -19 0 -21
-19 -4 -29 16 -9 16 -10 -4 -8 -14 1 -20 7 -18 19 2 10 0 18 -6 18 -5 0 -10
-8 -10 -17 -1 -16 -2 -16 -6 0 -4 17 -6 17 -22 3 -17 -15 -19 -14 -36 8 -16
21 -20 22 -32 10 -8 -8 -11 -19 -7 -25 4 -8 3 -9 -5 -5 -6 4 -9 16 -6 25 4 15
0 18 -20 16 -14 -2 -25 2 -26 8 0 7 -4 3 -9 -8 -5 -11 -9 -15 -9 -8 -1 7 -8
10 -16 7 -9 -4 -15 0 -15 8 0 11 16 15 63 17 390 13 793 139 1097 345 402 272
680 622 840 1056 47 127 108 373 126 512 20 151 15 507 -9 633 -51 267 -127
489 -239 695 -50 93 -172 272 -248 365 -127 155 -379 371 -563 484 -292 178
-635 285 -987 307 l-110 7 0 83 0 84 33 0 c17 0 88 -7 156 -15z m141 -316
c183 -27 347 -79 525 -163 351 -168 678 -460 879 -786 74 -119 157 -287 194
-391 55 -156 116 -439 92 -424 -6 3 -10 2 -10 -4 0 -5 6 -11 13 -14 9 -3 9 -8
1 -18 -5 -8 -9 -24 -8 -36 0 -13 -3 -23 -8 -23 -6 0 -7 -8 -3 -17 5 -15 4 -16
-6 -5 -18 17 -34 15 -19 -3 8 -9 9 -15 2 -15 -6 0 -14 5 -17 10 -3 6 -12 10
-18 10 -8 0 -9 -3 -1 -8 6 -4 13 -14 16 -23 5 -13 2 -16 -14 -11 -14 3 -19 1
-14 -6 7 -12 -13 -62 -25 -62 -4 0 -10 35 -14 78 -28 351 -132 660 -316 933
-114 170 -198 263 -360 399 -115 96 -240 180 -355 238 -75 38 -224 98 -264
107 -28 6 -44 35 -19 35 5 0 8 -4 5 -9 -3 -5 1 -12 10 -15 44 -17 47 9 4 28
-17 7 -27 16 -23 21 5 4 2 5 -5 1 -7 -4 -21 -4 -30 0 -32 14 -50 13 -62 -1 -9
-11 -9 -15 -1 -15 6 0 11 5 11 10 0 6 5 10 12 10 8 0 7 -6 -4 -16 -15 -16 -44
-11 -34 5 3 4 -6 14 -20 21 -18 10 -21 16 -12 22 9 5 10 8 1 8 -6 0 -18 -6
-25 -13 -18 -19 -43 -10 -27 9 7 8 9 17 5 21 -3 3 -6 1 -6 -7 0 -10 -3 -10
-15 0 -8 6 -19 9 -25 5 -5 -3 -10 -1 -10 4 0 6 5 11 11 11 8 0 7 5 -1 15 -7 9
-19 14 -27 11 -7 -3 -13 -1 -13 5 0 6 -5 7 -11 3 -8 -4 -7 -9 2 -16 9 -5 3 -6
-16 -2 l-30 7 20 -24 c20 -24 20 -24 -8 1 -16 14 -36 25 -44 25 -9 0 -18 7
-20 15 -4 13 -3 13 6 0 5 -8 13 -11 18 -7 10 10 -16 27 -33 20 -7 -2 -10 -11
-7 -19 9 -25 -6 -15 -21 14 -8 15 -15 21 -16 13 0 -7 -6 -11 -15 -7 -8 3 -15
0 -15 -6 0 -6 -3 -8 -6 -5 -4 4 -1 13 6 22 10 12 10 15 -4 15 -9 0 -16 -6 -16
-12 0 -8 -5 -6 -11 4 -5 10 -16 15 -24 11 -11 -4 -14 0 -9 13 4 15 1 14 -15
-5 -12 -13 -21 -18 -21 -13 0 6 5 14 11 18 8 4 7 9 -2 16 -17 11 215 1 311
-13z m0 -89 c0 -5 -4 -10 -10 -10 -5 0 -6 -8 -3 -17 6 -15 5 -16 -9 -3 -11 10
-12 18 -4 27 13 15 26 17 26 3z m204 -105 c-4 -8 -10 -15 -15 -15 -4 0 -6 7
-3 15 4 8 10 15 15 15 4 0 6 -7 3 -15z m28 -2 c-6 -2 -10 -9 -6 -14 3 -5 0 -9
-5 -9 -12 0 -14 13 -4 23 3 4 11 7 17 6 6 0 5 -3 -2 -6z m1438 -1717 c0 -3 -4
-8 -10 -11 -5 -3 -10 -1 -10 4 0 6 5 11 10 11 6 0 10 -2 10 -4z m-37 -46 c3
-11 1 -18 -4 -14 -5 3 -9 0 -9 -6 0 -6 7 -13 15 -16 8 -4 15 -10 15 -16 0 -5
-11 -1 -24 9 -13 10 -21 23 -18 28 4 6 7 13 8 18 3 14 4 17 8 17 2 0 6 -9 9
-20z m-40 -74 c4 -10 1 -13 -9 -9 -7 3 -14 9 -14 14 0 14 17 10 23 -5z m-1759
-2262 c3 -8 2 -12 -4 -9 -6 3 -10 10 -10 16 0 14 7 11 14 -7z m306 -39 c-7 -9
-15 -13 -19 -10 -3 3 1 10 9 15 21 14 24 12 10 -5z m-39 -12 c13 -17 13 -17
-6 -3 -11 8 -22 16 -24 17 -2 2 0 3 6 3 6 0 17 -8 24 -17z"/>
<path d="M4952 1890 c-7 -11 -8 -20 -3 -20 9 0 24 30 18 36 -1 2 -8 -6 -15
-16z"/>
<path d="M4640 1879 c0 -5 5 -7 10 -4 6 3 10 8 10 11 0 2 -4 4 -10 4 -5 0 -10
-5 -10 -11z"/>
<path d="M5012 1878 c-14 -14 -16 -28 -3 -28 9 0 24 30 18 36 -2 2 -9 -2 -15
-8z"/>
<path d="M5130 1880 c-9 -6 -10 -10 -3 -10 6 0 15 5 18 10 8 12 4 12 -15 0z"/>
<path d="M4685 6129 c-4 -6 -5 -12 -2 -15 2 -3 7 2 10 11 7 17 1 20 -8 4z"/>
<path d="M4699 6103 c-13 -17 -13 -17 6 -3 11 8 22 16 24 17 2 2 0 3 -6 3 -6
0 -17 -8 -24 -17z"/>
<path d="M4905 6051 c-3 -5 -2 -12 3 -15 5 -3 9 1 9 9 0 17 -3 19 -12 6z"/>
<path d="M5120 5929 c0 -6 6 -9 14 -6 7 3 20 0 27 -6 11 -10 11 -9 0 6 -15 19
-41 23 -41 6z"/>
<path d="M6440 4340 c0 -5 5 -10 10 -10 6 0 10 5 10 10 0 6 -4 10 -10 10 -5 0
-10 -4 -10 -10z"/>
<path d="M4230 4100 l0 -1383 148 6 c296 12 514 80 749 233 277 179 498 518
578 884 26 119 31 357 10 481 -49 294 -172 542 -370 748 -157 164 -316 265
-526 335 -137 46 -247 64 -435 72 l-154 7 0 -1383z"/>
</g>
</svg>
